<svg  xmlns="http://www.w3.org/2000/svg"  width="24"  height="24"  viewBox="0 0 24 24"  fill="none"  stroke="#E0E0E0"  stroke-width="2"  stroke-linecap="round"  stroke-linejoin="round"  class="icon icon-tabler icons-tabler-outline icon-tabler-printer"><path stroke="none" d="M0 0h24v24H0z" fill="none"/><path d="M17 17h2a2 2 0 0 0 2 -2v-4a2 2 0 0 0 -2 -2h-14a2 2 0 0 0 -2 2v4a2 2 0 0 0 2 2h2" /><path d="M17 9v-4a1 1 0 0 0 -1 -1h-8a1 1 0 0 0 -1 1v4" /><rect x="7" y="13" width="10" height="8" rx="1" /></svg>
